<svg xmlns="http://www.w3.org/2000/svg" xmlns:xlink="http://www.w3.org/1999/xlink" width="256" height="256" viewBox="0 0 256 256"><defs><rect id="icon-b" width="256" height="254"/><filter id="icon-a" width="100.8%" height="101.6%" x="-.4%" y="-.4%" filterUnits="objectBoundingBox"><feOffset dy="2" in="SourceAlpha" result="shadowOffsetOuter1"/><feColorMatrix in="shadowOffsetOuter1" values="0 0 0 0 0.749019608 0 0 0 0 0.749019608 0 0 0 0 0.749019608 0 0 0 1 0"/></filter></defs><g fill="none" fill-rule="evenodd"><use fill="#000" filter="url(#icon-a)" xlink:href="#icon-b"/><use fill="#000" xlink:href="#icon-b"/><path fill="#FFF" d="M103.254543,148.678174 C96.5527315,148.678174 96.8122595,148.678174 94.4944747,155.621547 L83.929688,186.541316 C78.7830478,201.745665 79.8131744,202.252743 89.3518272,203.809911 L96.8122595,205.093576 C98.6209702,206.888312 98.349464,211.511904 96.2991926,212.559998 L43.5032084,212.559998 C41.6785269,211.264354 41.4269843,207.401379 43.235695,205.093576 L50.9656371,203.809911 C58.4280658,202.506281 62.8999332,200.446028 66.7569188,191.955469 C69.4061009,186.239864 103.683763,94.9059655 113.741472,68.094725 C115.262705,64.0341097 115.316607,57.4420981 113.865247,53.3495409 L109.507172,41 L140.341097,41 L189.022564,182.945854 C194.947788,200.200475 196.245428,201.745665 209.381539,204.314992 L213.236528,205.093576 C215.294785,206.888312 215.294785,211.264354 213.496056,212.559998 L148.58211,212.559998 C146.525849,211.264354 146.266321,206.642759 147.811511,205.093576 L153.485193,204.314992 C162.762321,203.017352 164.053972,201.486137 160.179019,190.663818 C160.179019,190.663818 123.60154,80.9273873 122.329853,79.1306548 L121.802811,79.1306548 C120.764699,80.9273873 102.224417,132.399779 102.224417,132.399779 C99.6590823,139.880175 100.16616,139.880175 106.350912,139.880175 C106.350912,139.880175 104.498282,139.880175 117.482668,139.880175 C125.472138,139.880175 129.165421,144.725363 130.526945,147.210843 C130.956165,148.003401 130.481029,148.678174 129.586655,148.678174 L103.254543,148.678174"/></g></svg>